<svg xmlns="http://www.w3.org/2000/svg" xmlns:xlink="http://www.w3.org/1999/xlink" width="70" zoomAndPan="magnify" viewBox="0 0 52.5 52.499999" height="70" preserveAspectRatio="xMidYMid meet" version="1.0"><defs><filter x="0%" y="0%" width="100%" height="100%" id="35c6f5adf0"><feColorMatrix values="0 0 0 0 1 0 0 0 0 1 0 0 0 0 1 0 0 0 1 0" color-interpolation-filters="sRGB"/></filter><clipPath id="1b71ced974"><path d="M 4.4375 6.890625 L 47.9375 6.890625 L 47.9375 45.890625 L 4.4375 45.890625 Z M 4.4375 6.890625 " clip-rule="nonzero"/></clipPath><mask id="4ff91a62dd"><g filter="url(#35c6f5adf0)"><rect x="-5.25" width="63" fill="#000000" y="-5.25" height="62.999999" fill-opacity="0.8471"/></g></mask><clipPath id="c03aae44d6"><path d="M 0.753906 0.890625 L 43.9375 0.890625 L 43.9375 39.644531 L 0.753906 39.644531 Z M 0.753906 0.890625 " clip-rule="nonzero"/></clipPath><clipPath id="631a4ff530"><rect x="0" width="44" y="0" height="40"/></clipPath></defs><g clip-path="url(#1b71ced974)"><g mask="url(#4ff91a62dd)"><g transform="matrix(1, 0, 0, 1, 4, 6)"><g clip-path="url(#631a4ff530)"><g clip-path="url(#c03aae44d6)"><path fill="#008cdd" d="M 29.441406 24.660156 L 29.363281 25.945312 C 28.886719 33.855469 22.117188 39.890625 14.285156 39.40625 C 6.453125 38.914062 0.46875 32.089844 0.957031 24.179688 C 1.433594 16.269531 8.203125 10.230469 16.035156 10.714844 C 19.355469 10.921875 22.507812 12.300781 24.929688 14.609375 L 27.46875 17.035156 L 13.914062 28.28125 L 7.753906 25.449219 L 17.519531 17.273438 C 16.914062 17.085938 16.296875 16.976562 15.671875 16.9375 C 11.230469 16.664062 7.390625 20.085938 7.117188 24.574219 C 6.84375 29.0625 10.234375 32.9375 14.675781 33.214844 C 19.121094 33.488281 22.957031 30.066406 23.230469 25.578125 L 23.308594 24.296875 Z M 37.742188 0.890625 L 37.742188 12.992188 C 35.351562 11.296875 32.519531 10.390625 29.53125 10.390625 C 27.117188 10.390625 24.84375 10.992188 22.839844 12.054688 C 23.777344 12.617188 24.648438 13.277344 25.449219 14.046875 L 28.242188 16.710938 C 28.660156 16.640625 29.089844 16.613281 29.53125 16.613281 C 34.0625 16.613281 37.742188 20.332031 37.742188 24.90625 C 37.742188 29.484375 34.0625 33.203125 29.53125 33.203125 C 28.964844 33.203125 28.417969 33.144531 27.890625 33.035156 C 27.117188 34.277344 26.179688 35.402344 25.078125 36.390625 C 24.453125 36.953125 23.789062 37.445312 23.09375 37.886719 C 25.027344 38.875 27.214844 39.425781 29.53125 39.425781 C 37.460938 39.425781 43.90625 32.917969 43.90625 24.90625 L 43.90625 7.007812 Z M 37.742188 0.890625 " fill-opacity="1" fill-rule="nonzero"/></g></g></g></g></g></svg>