<svg xmlns="http://www.w3.org/2000/svg" xmlns:xlink="http://www.w3.org/1999/xlink" width="300" zoomAndPan="magnify" viewBox="0 0 224.87999 65.249999" height="87" preserveAspectRatio="xMidYMid meet" version="1.0"><defs><g/><clipPath id="cd7502d0c7"><path d="M 128 39 L 162.167969 39 L 162.167969 41 L 128 41 Z M 128 39 " clip-rule="nonzero"/></clipPath><clipPath id="9d2f5c87d2"><path d="M 63.101562 39 L 97 39 L 97 41 L 63.101562 41 Z M 63.101562 39 " clip-rule="nonzero"/></clipPath><clipPath id="01498e19d1"><path d="M 98 34.726562 L 127 34.726562 L 127 42.574219 L 98 42.574219 Z M 98 34.726562 " clip-rule="nonzero"/></clipPath></defs><g clip-path="url(#cd7502d0c7)"><path fill="#000000" d="M 128.941406 39.914062 C 128.625 39.933594 128.597656 40.433594 128.898438 40.5 C 129.203125 40.570312 129.523438 40.527344 129.835938 40.535156 C 140.230469 40.535156 150.628906 40.535156 161.023438 40.535156 C 161.320312 40.53125 161.621094 40.5625 161.914062 40.507812 C 162.066406 40.480469 162.167969 40.339844 162.167969 40.199219 C 162.164062 39.992188 161.957031 39.878906 161.757812 39.898438 C 151.199219 39.902344 140.640625 39.898438 130.078125 39.898438 C 129.699219 39.910156 129.320312 39.875 128.941406 39.914062 Z M 128.941406 39.914062 " fill-opacity="1" fill-rule="nonzero"/></g><g clip-path="url(#9d2f5c87d2)"><path fill="#000000" d="M 96.332031 39.914062 C 96.644531 39.933594 96.671875 40.433594 96.371094 40.5 C 96.066406 40.570312 95.746094 40.527344 95.433594 40.535156 C 85.039062 40.535156 74.644531 40.535156 64.246094 40.535156 C 63.949219 40.53125 63.648438 40.5625 63.355469 40.507812 C 63.207031 40.480469 63.101562 40.339844 63.101562 40.199219 C 63.105469 39.992188 63.3125 39.878906 63.511719 39.898438 C 74.070312 39.902344 84.628906 39.898438 95.191406 39.898438 C 95.570312 39.910156 95.953125 39.875 96.332031 39.914062 Z M 96.332031 39.914062 " fill-opacity="1" fill-rule="nonzero"/></g><path fill="#000000" d="M 126.769531 40.1875 C 126.742188 40.640625 127.269531 41.03125 127.714844 40.855469 C 128.070312 40.75 128.269531 40.367188 128.171875 40.03125 C 128.101562 39.769531 127.851562 39.554688 127.566406 39.539062 C 127.164062 39.472656 126.765625 39.800781 126.769531 40.1875 Z M 127.84375 40.101562 C 127.949219 40.339844 127.667969 40.625 127.410156 40.566406 C 127.238281 40.527344 127.097656 40.367188 127.105469 40.195312 C 127.121094 40.019531 127.28125 39.875 127.457031 39.839844 C 127.621094 39.84375 127.789062 39.949219 127.84375 40.101562 Z M 127.84375 40.101562 " fill-opacity="1" fill-rule="nonzero"/><path fill="#000000" d="M 98.5 40.1875 C 98.527344 40.640625 98 41.03125 97.554688 40.855469 C 97.199219 40.75 97 40.367188 97.097656 40.03125 C 97.167969 39.769531 97.414062 39.554688 97.699219 39.539062 C 98.101562 39.472656 98.503906 39.800781 98.5 40.1875 Z M 97.425781 40.101562 C 97.320312 40.339844 97.601562 40.625 97.855469 40.566406 C 98.03125 40.527344 98.167969 40.367188 98.164062 40.195312 C 98.148438 40.019531 97.988281 39.875 97.8125 39.839844 C 97.644531 39.84375 97.480469 39.949219 97.425781 40.101562 Z M 97.425781 40.101562 " fill-opacity="1" fill-rule="nonzero"/><g clip-path="url(#01498e19d1)"><path fill="#000000" d="M 112.632812 41.523438 C 112.800781 41.511719 112.972656 41.5 113.140625 41.480469 C 115.015625 41.296875 116.792969 40.59375 118.394531 39.664062 C 119.1875 39.210938 119.898438 38.632812 120.691406 38.175781 C 121.476562 37.714844 122.359375 37.359375 123.289062 37.332031 C 124.296875 37.347656 125.277344 37.925781 125.738281 38.785156 C 126.089844 39.429688 126.121094 40.203125 125.921875 40.898438 C 125.808594 41.332031 125.597656 41.757812 125.25 42.0625 C 124.921875 42.351562 124.46875 42.488281 124.023438 42.472656 C 123.425781 42.488281 122.777344 42.261719 122.449219 41.757812 C 122.074219 41.199219 122.226562 40.339844 122.84375 40 C 123.277344 39.753906 123.824219 39.824219 124.261719 40.027344 C 124.472656 40.121094 124.523438 40.359375 124.683594 40.511719 C 124.730469 40.355469 124.792969 40.195312 124.742188 40.035156 C 124.671875 39.78125 124.460938 39.585938 124.226562 39.464844 C 123.859375 39.273438 123.417969 39.25 123.015625 39.339844 C 122.445312 39.472656 121.992188 39.941406 121.882812 40.492188 C 121.808594 40.894531 121.859375 41.332031 122.089844 41.683594 C 122.394531 42.191406 123 42.480469 123.59375 42.527344 C 124.027344 42.539062 124.472656 42.566406 124.886719 42.417969 C 125.515625 42.21875 126.007812 41.714844 126.226562 41.121094 C 126.46875 40.441406 126.480469 39.6875 126.238281 39.007812 C 125.9375 38.148438 125.1875 37.464844 124.296875 37.167969 C 123.828125 36.992188 123.3125 37.003906 122.820312 37.042969 C 121.636719 37.21875 120.589844 37.839844 119.648438 38.515625 C 119.054688 38.949219 118.449219 39.367188 117.800781 39.730469 C 116.230469 40.609375 114.460938 41.25 112.632812 41.347656 C 110.804688 41.25 109.035156 40.609375 107.464844 39.730469 C 106.820312 39.367188 106.214844 38.949219 105.621094 38.515625 C 104.675781 37.839844 103.632812 37.21875 102.445312 37.042969 C 101.953125 37.003906 101.4375 36.992188 100.972656 37.167969 C 100.082031 37.464844 99.328125 38.148438 99.027344 39.007812 C 98.789062 39.6875 98.796875 40.441406 99.042969 41.121094 C 99.257812 41.714844 99.75 42.21875 100.378906 42.417969 C 100.792969 42.566406 101.242188 42.539062 101.671875 42.527344 C 102.269531 42.480469 102.875 42.191406 103.179688 41.683594 C 103.40625 41.332031 103.457031 40.894531 103.382812 40.492188 C 103.277344 39.941406 102.820312 39.472656 102.253906 39.339844 C 101.851562 39.25 101.410156 39.273438 101.042969 39.464844 C 100.804688 39.585938 100.59375 39.78125 100.523438 40.035156 C 100.472656 40.195312 100.535156 40.355469 100.585938 40.511719 C 100.742188 40.359375 100.792969 40.121094 101.003906 40.027344 C 101.441406 39.824219 101.988281 39.753906 102.421875 40 C 103.042969 40.339844 103.195312 41.199219 102.816406 41.757812 C 102.488281 42.261719 101.839844 42.488281 101.242188 42.472656 C 100.800781 42.488281 100.347656 42.351562 100.019531 42.0625 C 99.667969 41.757812 99.460938 41.332031 99.34375 40.898438 C 99.144531 40.203125 99.179688 39.429688 99.53125 38.785156 C 99.992188 37.925781 100.96875 37.347656 101.976562 37.332031 C 102.910156 37.359375 103.789062 37.714844 104.578125 38.175781 C 105.371094 38.632812 106.078125 39.210938 106.871094 39.664062 C 108.472656 40.59375 110.253906 41.296875 112.128906 41.480469 C 112.296875 41.5 112.464844 41.511719 112.632812 41.523438 Z M 112.632812 40.917969 C 113.554688 40.886719 114.492188 40.582031 115.148438 39.945312 C 115.710938 39.386719 116.09375 38.679688 116.710938 38.164062 C 117.023438 37.882812 117.398438 37.679688 117.75 37.453125 C 117.371094 37.417969 117.003906 37.324219 116.625 37.304688 C 116.050781 37.296875 115.453125 37.320312 114.921875 37.558594 C 114.132812 37.894531 113.574219 38.574219 112.785156 38.910156 C 112.734375 38.929688 112.683594 38.945312 112.632812 38.964844 C 112.582031 38.945312 112.53125 38.929688 112.480469 38.910156 C 111.695312 38.574219 111.132812 37.894531 110.34375 37.558594 C 109.816406 37.320312 109.21875 37.296875 108.640625 37.304688 C 108.261719 37.324219 107.894531 37.417969 107.515625 37.453125 C 107.871094 37.679688 108.242188 37.882812 108.554688 38.164062 C 109.171875 38.679688 109.558594 39.386719 110.121094 39.945312 C 110.777344 40.582031 111.710938 40.886719 112.632812 40.917969 Z M 112.632812 39.359375 C 112.867188 39.285156 113.089844 39.1875 113.292969 39.054688 C 113.996094 38.625 114.496094 37.925781 115.28125 37.621094 C 115.984375 37.371094 116.761719 37.324219 117.488281 37.511719 C 116.972656 37.824219 116.472656 38.164062 116.054688 38.59375 C 115.484375 39.175781 114.972656 39.863281 114.175781 40.1875 C 113.6875 40.390625 113.164062 40.507812 112.632812 40.539062 C 112.101562 40.507812 111.578125 40.390625 111.089844 40.1875 C 110.296875 39.863281 109.78125 39.175781 109.210938 38.59375 C 108.792969 38.164062 108.292969 37.824219 107.777344 37.511719 C 108.503906 37.324219 109.28125 37.371094 109.984375 37.621094 C 110.769531 37.925781 111.269531 38.625 111.972656 39.054688 C 112.175781 39.1875 112.398438 39.285156 112.632812 39.359375 Z M 112.632812 38.730469 C 113.085938 38.429688 113.4375 37.988281 113.625 37.492188 C 113.910156 36.765625 113.875 35.871094 113.34375 35.25 C 113.15625 35.023438 112.910156 34.847656 112.632812 34.730469 C 112.359375 34.847656 112.109375 35.023438 111.921875 35.25 C 111.390625 35.871094 111.359375 36.765625 111.640625 37.492188 C 111.832031 37.988281 112.183594 38.429688 112.632812 38.730469 Z M 112.632812 34.878906 C 112.960938 35.035156 113.238281 35.28125 113.40625 35.597656 C 113.640625 35.996094 113.664062 36.46875 113.617188 36.914062 C 113.523438 37.542969 113.15625 38.128906 112.632812 38.515625 C 112.109375 38.128906 111.746094 37.542969 111.652344 36.914062 C 111.601562 36.46875 111.625 35.996094 111.859375 35.597656 C 112.027344 35.28125 112.308594 35.035156 112.632812 34.878906 Z M 112.632812 34.878906 " fill-opacity="1" fill-rule="nonzero"/></g><path fill="#000000" d="M 120.707031 41.265625 C 120.582031 40.984375 120.296875 40.816406 120.035156 40.664062 C 119.195312 40.203125 118.15625 40.21875 117.253906 40.488281 C 116.769531 40.636719 116.277344 40.8125 115.871094 41.113281 C 117.078125 41.085938 118.164062 41.65625 119.324219 41.886719 C 119.675781 41.949219 120.054688 41.941406 120.390625 41.808594 C 120.609375 41.726562 120.796875 41.492188 120.707031 41.265625 Z M 119.40625 41.546875 C 118.371094 41.367188 117.375 40.964844 116.308594 40.992188 C 116.976562 40.75 117.6875 40.59375 118.402344 40.601562 C 119.125 40.625 119.898438 40.847656 120.367188 41.402344 C 120.082031 41.570312 119.730469 41.59375 119.40625 41.546875 Z M 119.40625 41.546875 " fill-opacity="1" fill-rule="nonzero"/><path fill="#000000" d="M 104.566406 41.265625 C 104.6875 40.984375 104.976562 40.816406 105.234375 40.664062 C 106.078125 40.203125 107.113281 40.21875 108.019531 40.488281 C 108.503906 40.636719 108.992188 40.8125 109.398438 41.113281 C 108.191406 41.085938 107.105469 41.65625 105.949219 41.886719 C 105.59375 41.949219 105.214844 41.941406 104.878906 41.808594 C 104.664062 41.726562 104.472656 41.492188 104.566406 41.265625 Z M 105.863281 41.546875 C 106.898438 41.367188 107.898438 40.964844 108.960938 40.992188 C 108.296875 40.75 107.585938 40.59375 106.867188 40.601562 C 106.148438 40.625 105.371094 40.847656 104.902344 41.402344 C 105.1875 41.570312 105.539062 41.59375 105.863281 41.546875 Z M 105.863281 41.546875 " fill-opacity="1" fill-rule="nonzero"/><g fill="#000000" fill-opacity="1"><g transform="translate(58.835424, 31.834587)"><g><path d="M 1.75 0 L 1.75 -14 L 15.734375 -14 L 15.734375 -12.53125 L 3.5 -12.53125 L 3.5 -7.875 L 15.15625 -7.875 L 15.15625 -6.40625 L 3.5 -6.40625 L 3.5 -1.453125 L 15.734375 -1.453125 L 15.734375 0 Z M 1.75 0 "/></g></g></g><g fill="#000000" fill-opacity="1"><g transform="translate(77.364688, 31.834587)"><g><path d="M 12.234375 -1.453125 C 13.003906 -1.453125 13.65625 -1.472656 14.1875 -1.515625 C 14.726562 -1.554688 15.171875 -1.644531 15.515625 -1.78125 C 15.859375 -1.914062 16.125 -2.101562 16.3125 -2.34375 C 16.5 -2.59375 16.632812 -2.921875 16.71875 -3.328125 C 16.8125 -3.742188 16.863281 -4.25 16.875 -4.84375 C 16.894531 -5.445312 16.90625 -6.164062 16.90625 -7 C 16.90625 -7.832031 16.894531 -8.546875 16.875 -9.140625 C 16.863281 -9.734375 16.8125 -10.234375 16.71875 -10.640625 C 16.632812 -11.054688 16.5 -11.390625 16.3125 -11.640625 C 16.125 -11.890625 15.859375 -12.078125 15.515625 -12.203125 C 15.171875 -12.335938 14.734375 -12.425781 14.203125 -12.46875 C 13.671875 -12.507812 13.015625 -12.53125 12.234375 -12.53125 L 3.5 -12.53125 L 3.5 -1.453125 Z M 1.75 0 L 1.75 -14 L 12.234375 -14 C 13.304688 -14 14.207031 -13.9375 14.9375 -13.8125 C 15.664062 -13.6875 16.269531 -13.492188 16.75 -13.234375 C 17.226562 -12.984375 17.59375 -12.664062 17.84375 -12.28125 C 18.101562 -11.894531 18.289062 -11.441406 18.40625 -10.921875 C 18.53125 -10.398438 18.601562 -9.8125 18.625 -9.15625 C 18.644531 -8.507812 18.65625 -7.789062 18.65625 -7 C 18.65625 -6.195312 18.644531 -5.46875 18.625 -4.8125 C 18.601562 -4.164062 18.53125 -3.582031 18.40625 -3.0625 C 18.289062 -2.539062 18.101562 -2.085938 17.84375 -1.703125 C 17.59375 -1.328125 17.226562 -1.007812 16.75 -0.75 C 16.269531 -0.5 15.664062 -0.3125 14.9375 -0.1875 C 14.207031 -0.0625 13.304688 0 12.234375 0 Z M 1.75 0 "/></g></g></g><g fill="#000000" fill-opacity="1"><g transform="translate(99.392675, 31.834587)"><g><path d="M 1.75 0 L 1.75 -14 L 15.734375 -14 L 15.734375 -12.53125 L 3.5 -12.53125 L 3.5 -7.875 L 15.15625 -7.875 L 15.15625 -6.40625 L 3.5 -6.40625 L 3.5 -1.453125 L 15.734375 -1.453125 L 15.734375 0 Z M 1.75 0 "/></g></g></g><g fill="#000000" fill-opacity="1"><g transform="translate(117.921939, 31.834587)"><g><path d="M 3.5 -12.828125 L 3.5 0 L 1.75 0 L 1.75 -14 L 4.671875 -14 L 12.8125 -1.75 L 20.96875 -14 L 23.75 -14 L 23.75 0 L 22.015625 0 L 22.015625 -12.640625 L 13.703125 0 L 11.9375 0 Z M 3.5 -12.828125 "/></g></g></g><g fill="#000000" fill-opacity="1"><g transform="translate(145.635353, 31.834587)"><g><path d="M 12.828125 -14.28125 C 13.898438 -14.28125 14.800781 -14.210938 15.53125 -14.078125 C 16.269531 -13.953125 16.875 -13.753906 17.34375 -13.484375 C 17.820312 -13.222656 18.1875 -12.890625 18.4375 -12.484375 C 18.6875 -12.085938 18.867188 -11.617188 18.984375 -11.078125 C 19.109375 -10.546875 19.179688 -9.9375 19.203125 -9.25 C 19.222656 -8.570312 19.234375 -7.820312 19.234375 -7 C 19.234375 -6.164062 19.222656 -5.410156 19.203125 -4.734375 C 19.179688 -4.054688 19.109375 -3.445312 18.984375 -2.90625 C 18.867188 -2.363281 18.6875 -1.890625 18.4375 -1.484375 C 18.1875 -1.085938 17.820312 -0.753906 17.34375 -0.484375 C 16.875 -0.222656 16.269531 -0.03125 15.53125 0.09375 C 14.800781 0.226562 13.898438 0.296875 12.828125 0.296875 L 7.5625 0.296875 C 6.5 0.296875 5.597656 0.226562 4.859375 0.09375 C 4.128906 -0.03125 3.523438 -0.222656 3.046875 -0.484375 C 2.578125 -0.753906 2.210938 -1.085938 1.953125 -1.484375 C 1.703125 -1.890625 1.515625 -2.363281 1.390625 -2.90625 C 1.273438 -3.445312 1.207031 -4.054688 1.1875 -4.734375 C 1.175781 -5.410156 1.171875 -6.164062 1.171875 -7 C 1.171875 -7.820312 1.175781 -8.570312 1.1875 -9.25 C 1.207031 -9.9375 1.273438 -10.546875 1.390625 -11.078125 C 1.515625 -11.617188 1.703125 -12.085938 1.953125 -12.484375 C 2.210938 -12.890625 2.578125 -13.222656 3.046875 -13.484375 C 3.523438 -13.753906 4.128906 -13.953125 4.859375 -14.078125 C 5.597656 -14.210938 6.5 -14.28125 7.5625 -14.28125 Z M 12.828125 -1.171875 C 13.609375 -1.171875 14.265625 -1.191406 14.796875 -1.234375 C 15.328125 -1.273438 15.765625 -1.363281 16.109375 -1.5 C 16.453125 -1.644531 16.71875 -1.847656 16.90625 -2.109375 C 17.09375 -2.367188 17.226562 -2.710938 17.3125 -3.140625 C 17.394531 -3.578125 17.441406 -4.109375 17.453125 -4.734375 C 17.472656 -5.367188 17.484375 -6.125 17.484375 -7 C 17.484375 -7.875 17.472656 -8.625 17.453125 -9.25 C 17.441406 -9.875 17.394531 -10.398438 17.3125 -10.828125 C 17.226562 -11.265625 17.09375 -11.613281 16.90625 -11.875 C 16.71875 -12.132812 16.453125 -12.332031 16.109375 -12.46875 C 15.765625 -12.613281 15.328125 -12.707031 14.796875 -12.75 C 14.265625 -12.800781 13.609375 -12.828125 12.828125 -12.828125 L 7.5625 -12.828125 C 6.789062 -12.828125 6.140625 -12.800781 5.609375 -12.75 C 5.078125 -12.707031 4.632812 -12.613281 4.28125 -12.46875 C 3.9375 -12.332031 3.671875 -12.132812 3.484375 -11.875 C 3.296875 -11.613281 3.160156 -11.265625 3.078125 -10.828125 C 2.992188 -10.398438 2.945312 -9.875 2.9375 -9.25 C 2.925781 -8.625 2.921875 -7.875 2.921875 -7 C 2.921875 -6.125 2.925781 -5.367188 2.9375 -4.734375 C 2.945312 -4.109375 2.992188 -3.578125 3.078125 -3.140625 C 3.171875 -2.710938 3.304688 -2.367188 3.484375 -2.109375 C 3.671875 -1.847656 3.9375 -1.644531 4.28125 -1.5 C 4.632812 -1.363281 5.078125 -1.273438 5.609375 -1.234375 C 6.140625 -1.191406 6.789062 -1.171875 7.5625 -1.171875 Z M 12.828125 -1.171875 "/></g></g></g><g fill="#000000" fill-opacity="1"><g transform="translate(95.994113, 50.612826)"><g><path d="M 2.3125 0.0625 C 1.914062 0.0625 1.570312 0 1.28125 -0.125 C 1 -0.25 0.78125 -0.421875 0.625 -0.640625 C 0.46875 -0.867188 0.390625 -1.140625 0.390625 -1.453125 L 0.390625 -1.625 C 0.390625 -1.664062 0.398438 -1.695312 0.421875 -1.71875 C 0.441406 -1.738281 0.46875 -1.75 0.5 -1.75 L 1 -1.75 C 1.03125 -1.75 1.054688 -1.738281 1.078125 -1.71875 C 1.097656 -1.695312 1.109375 -1.664062 1.109375 -1.625 L 1.109375 -1.484375 C 1.109375 -1.222656 1.222656 -1.003906 1.453125 -0.828125 C 1.679688 -0.660156 1.984375 -0.578125 2.359375 -0.578125 C 2.710938 -0.578125 2.976562 -0.648438 3.15625 -0.796875 C 3.34375 -0.953125 3.4375 -1.148438 3.4375 -1.390625 C 3.4375 -1.546875 3.390625 -1.679688 3.296875 -1.796875 C 3.203125 -1.910156 3.066406 -2.015625 2.890625 -2.109375 C 2.710938 -2.210938 2.453125 -2.328125 2.109375 -2.453125 C 1.734375 -2.597656 1.4375 -2.726562 1.21875 -2.84375 C 1 -2.96875 0.816406 -3.125 0.671875 -3.3125 C 0.523438 -3.507812 0.453125 -3.753906 0.453125 -4.046875 C 0.453125 -4.492188 0.609375 -4.84375 0.921875 -5.09375 C 1.242188 -5.34375 1.675781 -5.46875 2.21875 -5.46875 C 2.601562 -5.46875 2.9375 -5.40625 3.21875 -5.28125 C 3.507812 -5.15625 3.734375 -4.972656 3.890625 -4.734375 C 4.046875 -4.503906 4.125 -4.238281 4.125 -3.9375 L 4.125 -3.828125 C 4.125 -3.785156 4.113281 -3.753906 4.09375 -3.734375 C 4.070312 -3.710938 4.046875 -3.703125 4.015625 -3.703125 L 3.515625 -3.703125 C 3.472656 -3.703125 3.441406 -3.710938 3.421875 -3.734375 C 3.398438 -3.753906 3.390625 -3.78125 3.390625 -3.8125 L 3.390625 -3.890625 C 3.390625 -4.160156 3.28125 -4.382812 3.0625 -4.5625 C 2.851562 -4.738281 2.5625 -4.828125 2.1875 -4.828125 C 1.863281 -4.828125 1.613281 -4.757812 1.4375 -4.625 C 1.269531 -4.5 1.1875 -4.3125 1.1875 -4.0625 C 1.1875 -3.894531 1.226562 -3.753906 1.3125 -3.640625 C 1.40625 -3.535156 1.535156 -3.441406 1.703125 -3.359375 C 1.878906 -3.273438 2.144531 -3.164062 2.5 -3.03125 C 2.863281 -2.882812 3.160156 -2.75 3.390625 -2.625 C 3.617188 -2.507812 3.804688 -2.351562 3.953125 -2.15625 C 4.097656 -1.957031 4.171875 -1.710938 4.171875 -1.421875 C 4.171875 -1.117188 4.097656 -0.859375 3.953125 -0.640625 C 3.804688 -0.421875 3.585938 -0.25 3.296875 -0.125 C 3.015625 0 2.6875 0.0625 2.3125 0.0625 Z M 2.3125 0.0625 "/></g></g></g><g fill="#000000" fill-opacity="1"><g transform="translate(105.195126, 50.612826)"><g><path d="M 3.640625 -5.296875 C 3.640625 -5.335938 3.648438 -5.363281 3.671875 -5.375 C 3.691406 -5.394531 3.722656 -5.40625 3.765625 -5.40625 L 4.265625 -5.40625 C 4.304688 -5.40625 4.335938 -5.394531 4.359375 -5.375 C 4.378906 -5.363281 4.390625 -5.335938 4.390625 -5.296875 L 4.390625 -0.109375 C 4.390625 -0.078125 4.378906 -0.0507812 4.359375 -0.03125 C 4.335938 -0.0078125 4.304688 0 4.265625 0 L 3.765625 0 C 3.722656 0 3.691406 -0.0078125 3.671875 -0.03125 C 3.648438 -0.0507812 3.640625 -0.078125 3.640625 -0.109375 L 3.640625 -2.359375 C 3.640625 -2.390625 3.628906 -2.40625 3.609375 -2.40625 L 1.421875 -2.40625 C 1.390625 -2.40625 1.375 -2.390625 1.375 -2.359375 L 1.375 -0.109375 C 1.375 -0.078125 1.363281 -0.0507812 1.34375 -0.03125 C 1.320312 -0.0078125 1.296875 0 1.265625 0 L 0.75 0 C 0.71875 0 0.691406 -0.0078125 0.671875 -0.03125 C 0.648438 -0.0507812 0.640625 -0.078125 0.640625 -0.109375 L 0.640625 -5.296875 C 0.640625 -5.335938 0.648438 -5.363281 0.671875 -5.375 C 0.691406 -5.394531 0.71875 -5.40625 0.75 -5.40625 L 1.265625 -5.40625 C 1.296875 -5.40625 1.320312 -5.394531 1.34375 -5.375 C 1.363281 -5.363281 1.375 -5.335938 1.375 -5.296875 L 1.375 -3.09375 C 1.375 -3.0625 1.390625 -3.046875 1.421875 -3.046875 L 3.609375 -3.046875 C 3.628906 -3.046875 3.640625 -3.0625 3.640625 -3.09375 Z M 3.640625 -5.296875 "/></g></g></g><g fill="#000000" fill-opacity="1"><g transform="translate(114.836856, 50.612826)"><g><path d="M 2.390625 0.0625 C 2.015625 0.0625 1.679688 -0.0078125 1.390625 -0.15625 C 1.109375 -0.3125 0.882812 -0.53125 0.71875 -0.8125 C 0.5625 -1.09375 0.484375 -1.414062 0.484375 -1.78125 L 0.484375 -3.625 C 0.484375 -3.988281 0.5625 -4.3125 0.71875 -4.59375 C 0.882812 -4.875 1.109375 -5.085938 1.390625 -5.234375 C 1.679688 -5.390625 2.015625 -5.46875 2.390625 -5.46875 C 2.773438 -5.46875 3.113281 -5.390625 3.40625 -5.234375 C 3.695312 -5.085938 3.921875 -4.875 4.078125 -4.59375 C 4.234375 -4.3125 4.3125 -3.988281 4.3125 -3.625 L 4.3125 -1.78125 C 4.3125 -1.414062 4.234375 -1.09375 4.078125 -0.8125 C 3.921875 -0.53125 3.695312 -0.3125 3.40625 -0.15625 C 3.113281 -0.0078125 2.773438 0.0625 2.390625 0.0625 Z M 2.390625 -0.578125 C 2.742188 -0.578125 3.03125 -0.679688 3.25 -0.890625 C 3.46875 -1.109375 3.578125 -1.394531 3.578125 -1.75 L 3.578125 -3.640625 C 3.578125 -3.992188 3.46875 -4.28125 3.25 -4.5 C 3.03125 -4.71875 2.742188 -4.828125 2.390625 -4.828125 C 2.046875 -4.828125 1.765625 -4.71875 1.546875 -4.5 C 1.335938 -4.28125 1.234375 -3.992188 1.234375 -3.640625 L 1.234375 -1.75 C 1.234375 -1.394531 1.335938 -1.109375 1.546875 -0.890625 C 1.765625 -0.679688 2.046875 -0.578125 2.390625 -0.578125 Z M 2.390625 -0.578125 "/></g></g></g><g fill="#000000" fill-opacity="1"><g transform="translate(124.300755, 50.612826)"><g><path d="M 2.75 -5.421875 C 3.0625 -5.421875 3.335938 -5.351562 3.578125 -5.21875 C 3.816406 -5.09375 4.003906 -4.910156 4.140625 -4.671875 C 4.273438 -4.429688 4.34375 -4.160156 4.34375 -3.859375 C 4.34375 -3.546875 4.273438 -3.269531 4.140625 -3.03125 C 4.003906 -2.800781 3.8125 -2.625 3.5625 -2.5 C 3.320312 -2.375 3.039062 -2.3125 2.71875 -2.3125 L 1.375 -2.3125 C 1.34375 -2.3125 1.328125 -2.296875 1.328125 -2.265625 L 1.328125 -0.109375 C 1.328125 -0.078125 1.316406 -0.0507812 1.296875 -0.03125 C 1.273438 -0.0078125 1.25 0 1.21875 0 L 0.703125 0 C 0.671875 0 0.644531 -0.0078125 0.625 -0.03125 C 0.601562 -0.0507812 0.59375 -0.078125 0.59375 -0.109375 L 0.59375 -5.3125 C 0.59375 -5.34375 0.601562 -5.367188 0.625 -5.390625 C 0.644531 -5.410156 0.671875 -5.421875 0.703125 -5.421875 Z M 2.65625 -2.90625 C 2.9375 -2.90625 3.160156 -2.988281 3.328125 -3.15625 C 3.503906 -3.332031 3.59375 -3.5625 3.59375 -3.84375 C 3.59375 -4.125 3.503906 -4.347656 3.328125 -4.515625 C 3.160156 -4.691406 2.9375 -4.78125 2.65625 -4.78125 L 1.375 -4.78125 C 1.34375 -4.78125 1.328125 -4.765625 1.328125 -4.734375 L 1.328125 -2.953125 C 1.328125 -2.921875 1.34375 -2.90625 1.375 -2.90625 Z M 2.65625 -2.90625 "/></g></g></g></svg>